<svg xmlns="http://www.w3.org/2000/svg" viewBox="0 0 878 291.9"><defs><style>.cls-1{fill:#49d227;}.cls-2{fill:#333;}</style></defs><title>Asset 3</title><g id="Layer_2" data-name="Layer 2"><g id="Layer_1-2" data-name="Layer 1"><g id="SvgjsG1031"><polygon class="cls-1" points="144.9 25.93 148.07 20.42 112.68 0 38 42.88 38 82.81 0 105.35 0 191.1 38 213.65 38 248.88 112.35 291.61 151 269.35 151 169.39 152.51 146.06 151 127.42 151 22.69 148.23 20.86 145.04 25.93 138 25.93 138 127.38 138 127.33 139.5 146.04 138 169.49 138 262 112.23 276.91 51 241.56 51 206.31 12 183.77 12 112.69 51 90.15 51 50.22 112.5 14.68 141.54 31.44 144.71 25.93 138.55 25.93 144.9 25.93"/><polyline class="cls-1" points="41.83 92.47 63.38 104.38 69.53 93.26 47.98 81.34"/><circle class="cls-1" cx="65.98" cy="98.56" r="9.56"/><path class="cls-1" d="M60.75,108a10.83,10.83,0,1,1,14.71-4.24A10.84,10.84,0,0,1,60.75,108ZM70,91.3a8.29,8.29,0,1,0,3.25,11.27A8.3,8.3,0,0,0,70,91.3C66,89.09,74,93.52,70,91.3Z"/><polyline class="cls-1" points="47.65 216.14 68.93 205.94 63.44 194.48 42.15 204.68"/><circle class="cls-1" cx="65.7" cy="200.45" r="9.56"/><path class="cls-1" d="M70.37,210.21a10.83,10.83,0,1,1,5.09-14.44,10.83,10.83,0,0,1-5.09,14.44ZM62.12,193a8.28,8.28,0,1,0,11.05,3.89A8.29,8.29,0,0,0,62.12,193Z"/><polygon class="cls-1" points="89.37 69.5 99 76.92 99 107.79 70 127.27 70 175.87 99 189.01 99 220.95 88.21 231.3 96.51 239.96 111 226.07 111 178.22 84 165.99 84 135.3 111 117.16 111 71.02 96.7 59.99 89.37 69.5"/><circle class="cls-1" cx="92.95" cy="64.86" r="9.56"/><path class="cls-1" d="M86.33,73.43a10.83,10.83,0,1,0-2-15.18,10.84,10.84,0,0,0,2,15.18C91.06,77.07,81.61,69.78,86.33,73.43ZM98,58.29A8.29,8.29,0,1,1,86.38,59.8,8.3,8.3,0,0,1,98,58.29C101.62,61.08,94.38,55.5,98,58.29Z"/><circle class="cls-1" cx="92.19" cy="235.56" r="9.56" transform="translate(-129.25 113.27) rotate(-39.72)"/><path class="cls-1" d="M84.7,227.74a10.83,10.83,0,1,1-.33,15.31,10.84,10.84,0,0,1,.33-15.31Zm13.22,13.8a8.28,8.28,0,1,0-11.71-.25,8.29,8.29,0,0,0,11.71.25Z"/><polyline class="cls-1" points="9 155.93 31 155.93 31 143.93 9 143.93"/><circle class="cls-1" cx="29.72" cy="150.65" r="9.56"/><path class="cls-1" d="M29.72,160.93a10.83,10.83,0,1,1,10.83-10.82,10.83,10.83,0,0,1-10.83,10.82Zm0-18a8.32,8.32,0,0,0-7.93,10.75,8.1,8.1,0,0,0,5.46,5.47,8.3,8.3,0,1,0,2.47-16.22Z"/><polyline class="cls-1" points="123 155.93 145 155.93 145 143.93 123 143.93"/><circle class="cls-1" cx="120.8" cy="150.65" r="9.56"/><path class="cls-1" d="M120.8,160.93A10.83,10.83,0,1,0,110,150.11a10.84,10.84,0,0,0,10.82,10.82Zm0-18a8.32,8.32,0,0,1,7.94,10.75,8.1,8.1,0,0,1-5.46,5.47,8.3,8.3,0,1,1-2.48-16.22Z"/><polygon class="cls-1" points="143.92 25.93 147.13 31.87 176.57 15.11 238 50.65 238 90.58 279 113.12 279 184.2 238 206.74 238 241.56 176.77 276.91 151 262 151 169.46 152.5 146.04 151 127.33 151 127.38 151 25.93 145.57 25.93 148.74 31.87 145.57 25.93 138 25.93 138 127.43 139.5 146.07 138 169.42 138 269.34 176.99 291.9 252 248.59 252 214 291 191.49 291 105.83 252 83.31 252 42.88 177.66 0.01 139 22.26 139 25.93 143.92 25.93"/><polyline class="cls-1" points="242.16 81.34 220.6 93.26 226.75 104.38 248.31 92.47"/><circle class="cls-1" cx="224.14" cy="98.56" r="9.56" transform="translate(-19.71 120.72) rotate(-28.93)"/><path class="cls-1" d="M218.91,89.08a10.83,10.83,0,1,1-4.24,14.72,10.84,10.84,0,0,1,4.24-14.72Zm9.25,16.73a8.29,8.29,0,1,0-11.26-3.25,8.3,8.3,0,0,0,11.26,3.25Z"/><polyline class="cls-1" points="247.98 204.68 226.7 194.48 221.21 205.94 242.49 216.14"/><circle class="cls-1" cx="224.44" cy="200.42" r="9.56"/><path class="cls-1" d="M229.12,190.68a10.83,10.83,0,1,1-14.45,5.09,10.85,10.85,0,0,1,14.45-5.09Zm-8.26,17.24A8.29,8.29,0,1,0,217,196.86a8.3,8.3,0,0,0,3.89,11.06Z"/><polygon class="cls-1" points="194.73 58.93 180 70.61 180 115.74 207 134.39 207 165.95 180 178.53 180 226.43 193.28 239.16 200.9 231.23 191 221.74 191 186.73 220 174.15 220 127.62 191 108.97 191 76.87 201.65 69 193.55 58.93 194.73 58.93"/><circle class="cls-1" cx="197.19" cy="64.85" r="9.56"/><path class="cls-1" d="M190.58,56.28a10.83,10.83,0,1,0,15.19,2,10.84,10.84,0,0,0-15.19-2C185.85,59.92,195.31,52.63,190.58,56.28Zm11.67,15.14a8.29,8.29,0,1,1,1.5-11.62,8.29,8.29,0,0,1-1.5,11.62Z"/><circle class="cls-1" cx="197.95" cy="235.55" r="9.56"/><path class="cls-1" d="M190.46,243.38a10.83,10.83,0,1,1,15.31-.33,10.83,10.83,0,0,1-15.31.33Zm13.22-13.8a8.28,8.28,0,1,0,.25,11.71,8.27,8.27,0,0,0-.25-11.71Z"/><polyline class="cls-1" points="284 143.93 261 143.93 261 155.93 284 155.93"/><circle class="cls-1" cx="260.41" cy="150.65" r="9.56"/><path class="cls-1" d="M260.41,139.93a10.83,10.83,0,1,1-10.83,10.83,10.85,10.85,0,0,1,10.83-10.83Zm0,19a8.3,8.3,0,0,0,7.93-10.74,8.07,8.07,0,0,0-5.45-5.47,8.29,8.29,0,1,0-2.48,16.21Z"/><polyline class="cls-1" points="168 143.93 145 143.93 145 155.93 168 155.93"/><circle class="cls-1" cx="169.33" cy="150.65" r="9.56"/><path class="cls-1" d="M169.33,139.93a10.83,10.83,0,1,0,10.83,10.83,10.84,10.84,0,0,0-10.83-10.83Zm0,19a8.31,8.31,0,0,1-7.93-10.75,8.08,8.08,0,0,1,5.47-5.46,8.29,8.29,0,1,1,2.46,16.21Z"/></g><g id="SvgjsG1032"><path class="cls-2" d="M421.41,134.66l-35.23-6.59a17,17,0,0,1-.23-3.41c0-16.82,16.37-30,48.87-30s44.54,13.41,44.54,42.73v25c0,9.77.23,15.45,7.5,15.45a23,23,0,0,0,5-.68l-6.36,28a58.66,58.66,0,0,1-10.23.91c-16.82,0-24.09-8-26.59-14.78-5.45,7.73-13.63,15.91-30.23,15.91-19.31,0-35.9-10.91-35.9-31.13,0-24.55,24.31-35.69,61.36-35.91v-3.19c0-12-3-16.36-11.59-16.36-7.27,0-11.14,3-11.14,10.91a15.86,15.86,0,0,0,.23,3.18Zm22.5,33.87v-8.41c-13.86.22-25.68,2.72-25.68,13.18,0,5.91,3.86,8.63,9.77,8.63C434.82,181.93,443,178.3,443.91,168.53Zm55,35.45V178.3h12V66.48H496.64V40.8h49.77V178.3h12V204Zm72.5,0V178.3h12V123.53H568V97.84h48.41v19.09c3-7.27,11.82-22.27,34.77-22.27,13.64,0,26.59,5.68,31.14,23,2.5-6.14,11.13-23,35.68-23,15.68,0,33.86,6.37,33.86,39.55V178.3h12V204H706.64V178.3h9.77v-35c0-12.5-3-18.64-10.23-18.64-12.27,0-18.63,14.77-20.68,21.14v32.5h9.77V204h-55V178.3h9.78v-35c0-12.27-3-18.64-10.23-18.64-12.73,0-19.09,15.68-20.91,21.82V178.3h9.77V204Zm275.45-33.86L878,175.57c-5.91,19.77-20,31.59-48.41,31.59-35.45,0-55.91-18.41-55.91-55,0-29.54,13.18-57.5,54.32-57.5,33.41,0,50,18.41,50,52.73V159H810.73c.91,15.23,5.22,21.82,20,21.82C839.82,180.8,845.27,178.3,846.86,170.12Zm-35.68-32.73h29.55v-.23c0-12.5-4.78-17.27-14.09-17.27-8.64,0-13.64,4.09-15.46,17.5Z"/></g></g></g></svg>