<svg xmlns="http://www.w3.org/2000/svg" viewBox="0 0 291 291.92"><defs><style>.cls-1{fill:#22b573;}.cls-2{fill:#fff;}</style></defs><title>Asset 5</title><g id="Layer_2" data-name="Layer 2"><g id="Layer_1-2" data-name="Layer 1"><g id="Layer_2-2" data-name="Layer 2"><rect class="cls-1" y="4.92" width="291" height="287"/></g><g id="Layer_1-3" data-name="Layer 1"><g id="SvgjsG1031"><polygon class="cls-2" points="144.89 25.9 148.1 20.45 112.66 0 38.01 42.9 38.01 82.83 0 105.36 0 191.08 38.01 213.61 38.01 248.89 112.34 291.63 150.99 269.34 150.99 169.35 152.51 146.01 150.99 127.41 150.99 22.69 148.26 20.85 145.05 25.9 138 25.9 138 127.33 138 127.33 139.52 146.01 138 169.51 138 261.96 112.26 276.87 51 241.51 51 206.31 12.03 183.78 12.03 112.66 51 90.13 51 50.2 112.5 14.67 141.52 31.43 144.73 25.9 138.56 25.9 144.89 25.9"/><polyline class="cls-2" points="41.86 92.45 63.34 104.4 69.52 93.25 47.95 81.31"/><circle class="cls-2" cx="65.99" cy="98.55" r="9.54"/><path class="cls-2" d="M60.78,108a10.86,10.86,0,1,1,14.75-4.25A10.89,10.89,0,0,1,60.78,108C55.49,105.12,66,110.89,60.78,108ZM70,91.33a8.25,8.25,0,1,0-8,14.43,8.35,8.35,0,0,0,11.23-3.21A8.19,8.19,0,0,0,70,91.33C66,89.08,74,93.49,70,91.33Z"/><polyline class="cls-2" points="47.63 216.09 68.96 205.91 63.42 194.44 42.18 204.63"/><circle class="cls-2" cx="65.67" cy="200.46" r="9.54"/><path class="cls-2" d="M70.4,210.16a10.81,10.81,0,1,1,5-14.43,10.83,10.83,0,0,1-5,14.43C65,212.81,75.77,207.59,70.4,210.16Zm-8.26-17.24a8.31,8.31,0,1,0,11.07,3.93,8.4,8.4,0,0,0-11.07-3.93C58,194.93,66.23,191,62.14,192.92Z"/><polygon class="cls-2" points="89.4 69.52 99.03 76.9 99.03 107.77 70 127.25 70 175.84 99.03 188.99 99.03 220.91 88.2 231.25 96.54 239.91 110.97 226.04 110.97 178.17 84.03 165.98 84.03 135.27 110.97 117.15 110.97 71.04 96.7 59.98 89.4 69.52"/><circle class="cls-2" cx="92.93" cy="64.87" r="9.54"/><path class="cls-2" d="M86.36,73.45a10.8,10.8,0,1,0-1.93-15.16,10.78,10.78,0,0,0,1.93,15.16C91.09,77.06,81.63,69.76,86.36,73.45ZM98,58.29a8.29,8.29,0,1,1-11.62,1.53A8.23,8.23,0,0,1,98,58.29Z"/><circle class="cls-2" cx="92.22" cy="235.53" r="9.54" transform="translate(-129.22 113.29) rotate(-39.72)"/><path class="cls-2" d="M84.67,227.72A10.84,10.84,0,1,1,84.35,243a11,11,0,0,1,.32-15.32C89,223.63,80.42,231.89,84.67,227.72ZM97.9,241.51a8.28,8.28,0,1,0-11.7-.24,8.24,8.24,0,0,0,11.7.24C101.19,238.38,94.62,244.72,97.9,241.51Z"/><polyline class="cls-2" points="8.98 155.96 31.03 155.96 31.03 143.93 8.98 143.93"/><circle class="cls-2" cx="29.75" cy="150.66" r="9.54"/><path class="cls-2" d="M29.75,160.93A10.84,10.84,0,1,1,40.57,150.1a10.87,10.87,0,0,1-10.82,10.83Zm0-18a8.33,8.33,0,0,0-7.94,10.74,7.78,7.78,0,0,0,5.45,5.45,8.28,8.28,0,1,0,2.49-16.19Z"/><polyline class="cls-2" points="123 155.96 144.97 155.96 144.97 143.93 123 143.93"/><circle class="cls-2" cx="120.84" cy="150.66" r="9.54"/><path class="cls-2" d="M120.84,160.93A10.84,10.84,0,1,0,110,150.1a10.87,10.87,0,0,0,10.83,10.83Zm0-18a8.32,8.32,0,0,1,7.93,10.74,7.77,7.77,0,0,1-5.45,5.45,8.28,8.28,0,1,1-2.48-16.19Z"/><polygon class="cls-2" points="143.93 25.9 147.14 31.83 176.56 15.07 237.98 50.68 237.98 90.61 279.04 113.14 279.04 184.18 237.98 206.71 237.98 241.51 176.8 276.87 150.99 261.96 150.99 169.43 152.51 146.01 150.99 127.33 150.99 127.33 150.99 25.9 145.53 25.9 148.74 31.83 145.53 25.9 138 25.9 138 127.41 139.52 146.09 138 169.43 138 269.34 176.96 291.87 252.02 248.57 252.02 214.01 290.99 191.48 290.99 105.84 252.02 83.31 252.02 42.9 177.69 0 139.04 22.21 139.04 25.9 143.93 25.9"/><polyline class="cls-2" points="242.15 81.31 220.58 93.25 226.76 104.4 248.33 92.45"/><circle class="cls-2" cx="224.09" cy="98.56" r="9.54" transform="translate(-19.72 120.7) rotate(-28.93)"/><path class="cls-2" d="M218.9,89.08a10.86,10.86,0,1,1-4.25,14.76,10.91,10.91,0,0,1,4.25-14.76C224.11,86.2,213.69,92,218.9,89.08Zm9.22,16.68a8.25,8.25,0,1,0-11.22-3.21,8.23,8.23,0,0,0,11.22,3.21C232.13,103.6,224.19,108,228.12,105.76Z"/><polyline class="cls-2" points="248.01 204.63 226.68 194.44 221.23 205.91 242.47 216.09"/><circle class="cls-2" cx="224.43" cy="200.38" r="9.54"/><path class="cls-2" d="M229.08,190.68a10.81,10.81,0,1,1-14.43,5,10.77,10.77,0,0,1,14.43-5C234.54,193.24,223.71,188.11,229.08,190.68Zm-8.26,17.24a8.31,8.31,0,1,0-3.92-11.07,8.42,8.42,0,0,0,3.92,11.07C225,209.84,216.74,205.91,220.82,207.92Z"/><polygon class="cls-2" points="194.76 58.94 180.01 70.56 180.01 115.7 207.03 134.39 207.03 165.9 180.01 178.49 180.01 226.44 193.32 239.19 200.86 231.25 191 221.71 191 186.75 220.02 174.16 220.02 127.57 191 108.97 191 76.82 201.66 68.96 193.56 58.94 194.76 58.94"/><circle class="cls-2" cx="197.17" cy="64.87" r="9.54"/><path class="cls-2" d="M190.6,56.29a10.8,10.8,0,1,0,15.15,1.92,10.74,10.74,0,0,0-15.15-1.92C185.86,59.9,195.33,52.6,190.6,56.29Zm11.62,15.15a8.29,8.29,0,1,1,1.53-11.62,8.29,8.29,0,0,1-1.53,11.62C198.61,74.17,205.83,68.64,202.22,71.44Z"/><circle class="cls-2" cx="197.97" cy="235.58" r="9.54"/><path class="cls-2" d="M190.44,243.36a10.83,10.83,0,1,1,15.31-.32,10.81,10.81,0,0,1-15.31.32C186.11,239.27,194.77,247.53,190.44,243.36Zm13.23-13.8a8.28,8.28,0,1,0,.24,11.71,8.33,8.33,0,0,0-.24-11.71C200.38,226.44,207,232.69,203.67,229.56Z"/><circle class="cls-2" cx="260.44" cy="150.66" r="9.54"/><path class="cls-2" d="M260.44,139.92a10.84,10.84,0,1,1-10.83,10.82,10.86,10.86,0,0,1,10.83-10.82Zm0,19a8.32,8.32,0,0,0,7.93-10.74,7.77,7.77,0,0,0-5.45-5.45,8.32,8.32,0,0,0-10.74,7.93,8.19,8.19,0,0,0,8.26,8.26Z"/><polyline class="cls-2" points="167.98 143.93 144.97 143.93 144.97 155.96 167.98 155.96"/><circle class="cls-2" cx="169.35" cy="150.66" r="9.54"/><path class="cls-2" d="M169.35,139.92a10.84,10.84,0,1,0,10.82,10.82,10.86,10.86,0,0,0-10.82-10.82Zm0,19a8.32,8.32,0,0,1-7.94-10.74,7.93,7.93,0,0,1,5.45-5.45,8.28,8.28,0,1,1,2.49,16.19Z"/></g></g></g></g></svg>