<svg xmlns="http://www.w3.org/2000/svg" viewBox="0 0 1328.31 291.92"><defs><style>.cls-1{fill:#22b573;}.cls-2{fill:#fff;}.cls-3{fill:#fcfcfc;}.cls-4{fill:#060606;}</style></defs><title>Asset 2</title><g id="Layer_2" data-name="Layer 2"><g id="Layer_1-2" data-name="Layer 1"><g id="Layer_2-2" data-name="Layer 2"><rect class="cls-1" y="4.92" width="291" height="287"/></g><g id="Layer_1-3" data-name="Layer 1"><g id="SvgjsG1031"><polygon class="cls-2" points="144.89 25.9 148.1 20.45 112.66 0 38.01 42.9 38.01 82.83 0 105.36 0 191.08 38.01 213.61 38.01 248.89 112.34 291.63 150.99 269.34 150.99 169.35 152.51 146.01 150.99 127.41 150.99 22.69 148.26 20.85 145.05 25.9 138 25.9 138 127.33 138 127.33 139.52 146.01 138 169.51 138 261.96 112.26 276.87 51 241.51 51 206.31 12.03 183.78 12.03 112.66 51 90.13 51 50.2 112.5 14.67 141.52 31.43 144.73 25.9 138.56 25.9 144.89 25.9"/><polyline class="cls-2" points="41.86 92.45 63.34 104.4 69.52 93.25 47.95 81.31"/><circle class="cls-2" cx="65.99" cy="98.55" r="9.54"/><path class="cls-2" d="M60.78,108a10.86,10.86,0,1,1,14.75-4.25A10.89,10.89,0,0,1,60.78,108C55.49,105.12,66,110.89,60.78,108ZM70,91.33a8.25,8.25,0,1,0-8,14.43,8.35,8.35,0,0,0,11.23-3.21A8.19,8.19,0,0,0,70,91.33C66,89.08,74,93.49,70,91.33Z"/><polyline class="cls-2" points="47.63 216.09 68.96 205.91 63.42 194.44 42.18 204.63"/><circle class="cls-2" cx="65.67" cy="200.46" r="9.54"/><path class="cls-2" d="M70.4,210.16a10.81,10.81,0,1,1,5-14.43,10.83,10.83,0,0,1-5,14.43C65,212.81,75.77,207.59,70.4,210.16Zm-8.26-17.24a8.31,8.31,0,1,0,11.07,3.93,8.4,8.4,0,0,0-11.07-3.93C58,194.93,66.23,191,62.14,192.92Z"/><polygon class="cls-2" points="89.4 69.52 99.03 76.9 99.03 107.77 70 127.25 70 175.84 99.03 188.99 99.03 220.91 88.2 231.25 96.54 239.91 110.97 226.04 110.97 178.17 84.03 165.98 84.03 135.27 110.97 117.15 110.97 71.04 96.7 59.98 89.4 69.52"/><circle class="cls-2" cx="92.93" cy="64.87" r="9.54"/><path class="cls-2" d="M86.36,73.45a10.8,10.8,0,1,0-1.93-15.16,10.78,10.78,0,0,0,1.93,15.16C91.09,77.06,81.63,69.76,86.36,73.45ZM98,58.29a8.29,8.29,0,1,1-11.62,1.53A8.23,8.23,0,0,1,98,58.29Z"/><circle class="cls-2" cx="92.22" cy="235.53" r="9.54" transform="translate(-129.22 113.29) rotate(-39.72)"/><path class="cls-2" d="M84.67,227.72A10.84,10.84,0,1,1,84.35,243a11,11,0,0,1,.32-15.32C89,223.63,80.42,231.89,84.67,227.72ZM97.9,241.51a8.28,8.28,0,1,0-11.7-.24,8.24,8.24,0,0,0,11.7.24C101.19,238.38,94.62,244.72,97.9,241.51Z"/><polyline class="cls-2" points="8.98 155.96 31.03 155.96 31.03 143.93 8.98 143.93"/><circle class="cls-2" cx="29.75" cy="150.66" r="9.54"/><path class="cls-2" d="M29.75,160.93A10.84,10.84,0,1,1,40.57,150.1a10.87,10.87,0,0,1-10.82,10.83Zm0-18a8.33,8.33,0,0,0-7.94,10.74,7.78,7.78,0,0,0,5.45,5.45,8.28,8.28,0,1,0,2.49-16.19Z"/><polyline class="cls-2" points="123 155.96 144.97 155.96 144.97 143.93 123 143.93"/><circle class="cls-2" cx="120.84" cy="150.66" r="9.54"/><path class="cls-2" d="M120.84,160.93A10.84,10.84,0,1,0,110,150.1a10.87,10.87,0,0,0,10.83,10.83Zm0-18a8.32,8.32,0,0,1,7.93,10.74,7.77,7.77,0,0,1-5.45,5.45,8.28,8.28,0,1,1-2.48-16.19Z"/><polygon class="cls-2" points="143.93 25.9 147.14 31.83 176.56 15.07 237.98 50.68 237.98 90.61 279.04 113.14 279.04 184.18 237.98 206.71 237.98 241.51 176.8 276.87 150.99 261.96 150.99 169.43 152.51 146.01 150.99 127.33 150.99 127.33 150.99 25.9 145.53 25.9 148.74 31.83 145.53 25.9 138 25.9 138 127.41 139.52 146.09 138 169.43 138 269.34 176.96 291.87 252.02 248.57 252.02 214.01 290.99 191.48 290.99 105.84 252.02 83.31 252.02 42.9 177.69 0 139.04 22.21 139.04 25.9 143.93 25.9"/><polyline class="cls-2" points="242.15 81.31 220.58 93.25 226.76 104.4 248.33 92.45"/><circle class="cls-2" cx="224.09" cy="98.56" r="9.54" transform="translate(-19.72 120.7) rotate(-28.93)"/><path class="cls-2" d="M218.9,89.08a10.86,10.86,0,1,1-4.25,14.76,10.91,10.91,0,0,1,4.25-14.76C224.11,86.2,213.69,92,218.9,89.08Zm9.22,16.68a8.25,8.25,0,1,0-11.22-3.21,8.23,8.23,0,0,0,11.22,3.21C232.13,103.6,224.19,108,228.12,105.76Z"/><polyline class="cls-2" points="248.01 204.63 226.68 194.44 221.23 205.91 242.47 216.09"/><circle class="cls-2" cx="224.43" cy="200.38" r="9.54"/><path class="cls-2" d="M229.08,190.68a10.81,10.81,0,1,1-14.43,5,10.77,10.77,0,0,1,14.43-5C234.54,193.24,223.71,188.11,229.08,190.68Zm-8.26,17.24a8.31,8.31,0,1,0-3.92-11.07,8.42,8.42,0,0,0,3.92,11.07C225,209.84,216.74,205.91,220.82,207.92Z"/><polygon class="cls-2" points="194.76 58.94 180.01 70.56 180.01 115.7 207.03 134.39 207.03 165.9 180.01 178.49 180.01 226.44 193.32 239.19 200.86 231.25 191 221.71 191 186.75 220.02 174.16 220.02 127.57 191 108.97 191 76.82 201.66 68.96 193.56 58.94 194.76 58.94"/><circle class="cls-2" cx="197.17" cy="64.87" r="9.54"/><path class="cls-2" d="M190.6,56.29a10.8,10.8,0,1,0,15.15,1.92,10.74,10.74,0,0,0-15.15-1.92C185.86,59.9,195.33,52.6,190.6,56.29Zm11.62,15.15a8.29,8.29,0,1,1,1.53-11.62,8.29,8.29,0,0,1-1.53,11.62C198.61,74.17,205.83,68.64,202.22,71.44Z"/><circle class="cls-2" cx="197.97" cy="235.58" r="9.54"/><path class="cls-2" d="M190.44,243.36a10.83,10.83,0,1,1,15.31-.32,10.81,10.81,0,0,1-15.31.32C186.11,239.27,194.77,247.53,190.44,243.36Zm13.23-13.8a8.28,8.28,0,1,0,.24,11.71,8.33,8.33,0,0,0-.24-11.71C200.38,226.44,207,232.69,203.67,229.56Z"/><polyline class="cls-2" points="284.01 143.93 261 143.93 261 155.96 284.01 155.96"/><circle class="cls-2" cx="260.44" cy="150.66" r="9.54"/><path class="cls-2" d="M260.44,139.92a10.84,10.84,0,1,1-10.83,10.82,10.86,10.86,0,0,1,10.83-10.82Zm0,19a8.32,8.32,0,0,0,7.93-10.74,7.77,7.77,0,0,0-5.45-5.45,8.32,8.32,0,0,0-10.74,7.93,8.19,8.19,0,0,0,8.26,8.26Z"/><polyline class="cls-2" points="167.98 143.93 144.97 143.93 144.97 155.96 167.98 155.96"/><circle class="cls-2" cx="169.35" cy="150.66" r="9.54"/><path class="cls-2" d="M169.35,139.92a10.84,10.84,0,1,0,10.82,10.82,10.86,10.86,0,0,0-10.82-10.82Zm0,19a8.32,8.32,0,0,1-7.94-10.74,7.93,7.93,0,0,1,5.45-5.45,8.28,8.28,0,1,1,2.49,16.19Z"/></g></g><path class="cls-3" d="M314.34,36.45V227.38h1014V36.45Z"/><path class="cls-4" d="M429.46,49.32V72.21c3.11,0,10.15-1.32,12.14,1.65,1.22,1.84.73,4.84.73,6.93v88c0,1.91.39,4.53-.73,6.21-1.79,2.69-7.22,1.66-10,1.66v15.73c0,1.77-.45,4.51.73,6,2.07,2.61,10.54,1.15,13.57,1.15h40V176.61H475.23V49.32H429.46m80.81,26.46c0,8.6-1.43,17.15-1.43,25.75H494.53v22.88c4,0,12.61-1.8,13.49,3.59,3.24,20-5.82,43.71,6.81,61.47,10.23,14.39,37.3,15.61,50.49,4.68,6.1-5.06,10.12-14.84,11.45-22.55-7.89-2.49-15.46-6.16-23.6-7.86-.41,3.15-1,6.69-3.2,9.13-4.6,5-8.41-1.22-9.3-5.56-1-4.78-.37-10.15-.37-15V124.41h27.17V101.53H548.88c-2.22,0-5.7.58-7.43-1.15s-1.15-4.66-1.15-6.72V75.78h-30m632.12,0c0,6-1.35,11.88-1.43,17.88,0,2.26.55,5.66-1.65,7.13-2.92,1.95-9.25.74-12.65.74V118c0,1.73-.4,4.47,1.15,5.7,2.54,2,9.32.74,12.44.74v34.32c0,8.38-.38,17.11,2.91,25,7.66,18.42,35.58,22.22,51.23,12.31,6.19-3.93,9.4-9.94,12-16.6.79-2,2.43-5.42,1-7.46-1.09-1.57-4-2.17-5.69-2.86a107.32,107.32,0,0,0-16.45-5.41c-.47,3.17-1.28,7.45-3.78,9.7-3.85,3.48-7.91-.77-8.81-4.7-1.07-4.66-.28-10.24-.28-15V124.41h19.3c2.06,0,5.66.58,7.13-1.25,1.84-2.27.74-8.14.74-10.91,0-2.48,1.05-8.14-1.14-9.88-1.81-1.44-5.3-.84-7.44-.84h-18.59V75.78h-30M325.06,129.41c10.81.89,21.32,5.26,32.18,5.72,0-2.85-.38-6,1-8.57,7.27-13.39,24.57.26,19.29,12-.84,1.84-2.76,2.16-4.58,2.27-4.07.26-8.09.41-12.15.87-11.71,1.31-24.64,5.24-32.77,14.19-10.06,11.06-8.29,29.47,2.74,39.19,4.76,4.2,12.33,6.53,18.58,7.16,8,.8,16.83,0,23.6-4.62,3.87-2.66,6.46-6.85,10.73-8.85,3.17,13.37,21.67,12.16,32.18,12.16,2.58-8.28,4.11-17.2,5.72-25.74-2.05,0-4.44.27-6.37-.53-6.51-2.71-4.36-14-4.36-19.49,0-15.62,2.28-39.12-12.16-49.54-13.74-9.91-35.26-9.18-50.77-4.74-7.17,2.05-14.24,5.35-18.77,11.59-3.89,5.36-4.11,10.59-4.11,16.94m294.61,5.72c0-2.81-.4-6,1-8.57,7-13.55,24.65.25,19.36,12-1.66,3.66-11.11,2.59-14.59,3-11,1.24-24,3.82-32.38,11.68-18.28,17-6.82,46.43,17.37,49,8.34.89,17.14.27,24.31-4.34,4-2.57,7-7.76,11.44-9.13,2.73,13.5,22,12.16,32.18,12.16,2-8.57,4.11-17.09,5.72-25.74-2.1,0-4.49.26-6.43-.74-7.08-3.66-4.3-17.68-4.3-24.29,0-14.3,1-34.11-11.45-44a33.08,33.08,0,0,0-11.63-5.75c-16.2-4.75-39.51-3.7-53.31,6.84a25.64,25.64,0,0,0-9.27,13.6c-.59,2-1.38,4.91-.43,6.94,1.31,2.79,6.27,2.87,8.87,3.13,7.94.79,15.53,3.89,23.59,4.23m120.14-17.87c-2.29-4.76-1.43-10.56-1.43-15.73H694.76v14.3c0,2.06-.51,5,.43,6.92,2.24,4.56,11.11-1.2,13.44,4,1.36,3,.43,8,.43,11.27v25c0,3.17,1.13,9.13-.74,11.85s-7.76,1.74-10.7,1.74v15.73c0,1.77-.45,4.51.73,6,2,2.54,9.93,1.15,12.85,1.15h38.62V176.61h-8.58V154.44c0-5.1-.07-9.7,2.42-14.3a48.59,48.59,0,0,1,5.31-8.52c4.23-5,13.34-9,17.95-2.08,3,4.5,2.92,9.74,2.92,14.89v19.31c0,3.06,1,8.55-.74,11.21-1.63,2.46-6,1.66-8.56,1.66v15.73c0,1.77-.44,4.51.74,6,1.74,2.21,7.5,1.15,10,1.15h28.6c2.6,0,8.89,1.14,10.71-1.15,1.18-1.49.73-4.23.73-6V176.61c-2.37,0-6.3.7-8.15-1.15C800.74,173,802,166.18,802,163c0-12.48-.37-23.41,9.32-32.83a17.45,17.45,0,0,1,5-3.68c9.13-3.94,13.92,5.2,14.27,12.91.23,5,0,10,0,15v22.17h-9.3v15.73c0,1.77-.44,4.51.74,6,1.88,2.38,8.71,1.15,11.42,1.15h28.6c2.81,0,8.69,1.1,11-.73,1.41-1.12,1.14-3.41,1.15-5,0-3.81,0-7.63,0-11.44,0-1.58.26-3.87-1.15-5-2.1-1.67-7-.73-9.58-.73,0-14.79.36-29.61-.65-44.34-.58-8.47-1.24-16.54-6.62-23.59-10.09-13.22-32-13.51-45-4.53-4.67,3.24-9.33,7.39-10.7,13.11-4.73-3.83-6-10.07-11.44-13.61-11.43-7.38-25.57-7-37.19-.47-5.42,3-10.59,7.88-12.15,14.08m244.55,57.92a255.67,255.67,0,0,0-28.6-5c-1.91,9.49-16.75,12.19-24.31,7.76-6.46-3.78-8.57-12.24-8.58-19.2h52.91c2.23,0,6.28.75,8.15-.73,2.8-2.22.84-9.86.55-12.86-1.15-12.09-2-23.94-10.45-33.58-13.75-15.76-42.38-17.34-60.26-8.43A45.27,45.27,0,0,0,897.69,117c-6.35,8.45-7.19,18.72-8.63,28.82a59.33,59.33,0,0,0,6.12,34.91c9.55,17.79,28.64,21.58,47,21.58s37.59-7.35,42.19-27.17M1043,115.83c-1.06-3.58.83-10.28-1.45-13.16-1.88-2.37-8.71-1.14-11.42-1.14H998v22.88c3.31,0,10.64-1.37,13.15,1.14,2.34,2.34,1.15,8.7,1.15,11.73V163c0,3.31.91,8.26-.43,11.34-1.93,4.42-8.66,0-10.58,3.91-1.8,3.65-.44,10.76-.43,14.78,0,1.6-.34,3.94.73,5.29,1.75,2.21,7.51,1.15,10,1.15h30c2.71,0,9.54,1.23,11.42-1.15,1.18-1.49.73-4.23.73-6V176.61h-9.29V154.44a31.89,31.89,0,0,1,2.77-14.3,35.07,35.07,0,0,1,5.31-8.55c5.82-6.56,15.27-8.53,19.46.68,1.6,3.52,1.06,7.68,1.06,11.44v20.74c0,2.91,1,8-.73,10.5-1.56,2.33-5.45,1.66-7.85,1.66v15.73c0,1.77-.44,4.51.74,6,2,2.54,9.92,1.15,12.85,1.15h38.61V176.61h-10.72V139.42c0-8.82,0-18.8-4.45-26.73-12.27-21.79-47.5-18.11-58.48,3.14m269.58,59.35c-6.44-1.22-12.84-2.33-19.3-3.4-2.34-.39-5.4-1.65-7.76-1.26-2,.34-2.36,2.49-3.39,3.93a12.41,12.41,0,0,1-5.3,4.2c-2.28.95-4.73.82-7.15.82-3.61,0-7.3.15-10.61-1.57-6.59-3.41-7.85-12.58-8.7-19.17H1304c2.08,0,5.69.65,7.44-.73,2.29-1.82,1.14-8.11,1.14-10.71,0-10.56-1.63-23-7.66-32-16.37-24.38-64.24-23.39-79.46,2-3.63,6.09-6.85,13.54-7.83,20.61-.37,2.6-.05,5.26-.36,7.87-1.33,11.29-.08,24.85,5.46,35,8.89,16.35,27.55,21.48,44.8,21.48C1287.33,202.35,1306.55,196.29,1312.58,175.18Z"/><path class="cls-3" d="M922.87,138.71H950c0-3.83.15-7.93-1.65-11.44-3.6-7-13.91-8.89-19.65-3.34-3.63,3.51-5.45,9.88-5.87,14.78m328.22,0h27.17c0-4.18-.16-8.41-2.31-12.15-4-7-14.37-7.53-19.76-2-3.6,3.69-4.71,9.22-5.1,14.18M368.68,159.1c-5,1-10.06,2.19-12.95,6.79-2.42,3.85-1.92,10.75,2.56,13,2.37,1.18,6.44.86,9,.35,7-1.44,10.65-7.2,10.72-14,0-1.72.39-4.38-1.14-5.6-1.93-1.52-5.94-.91-8.15-.47m262.43,0c-4.88,1-10,2.35-12.94,6.81-2.33,3.57-2,11.05,2.37,13,2.5,1.12,6.53.7,9.14.19,7-1.35,10.7-7.13,10.73-14,0-1.72.39-4.38-1.15-5.6C637.33,158.05,633.33,158.66,631.11,159.1Z"/></g></g></svg>